<?xml version="1.0" encoding="UTF-8"?>
<svg version="1.1" xmlns="http://www.w3.org/2000/svg" width="341" height="341">
<path d="M0 0 C5.28 0.33 10.56 0.66 16 1 C16.495 15.355 16.495 15.355 17 30 C25.25 30 33.5 30 42 30 C41.979375 27.81375 41.95875 25.6275 41.9375 23.375 C41.90334578 15.86856986 42.38267625 8.48505042 43 1 C47.95 1 52.9 1 58 1 C58.78652043 5.71912259 59.12170468 9.65469278 59.11352539 14.38232422 C59.11367142 15.09521103 59.11381744 15.80809784 59.1139679 16.54258728 C59.11327572 18.87998585 59.10551612 21.21730299 59.09765625 23.5546875 C59.0957896 25.18278968 59.09436686 26.81089242 59.09336853 28.43899536 C59.08956282 32.71001759 59.07974926 36.98100545 59.06866455 41.25201416 C59.05840848 45.61592138 59.05386194 49.97983419 59.04882812 54.34375 C59.03812515 62.89585081 59.02054422 71.44791716 59 80 C53.39 80 47.78 80 42 80 C42 70.76 42 61.52 42 52 C33.42 52 24.84 52 16 52 C16 61.24 16 70.48 16 80 C10.72 80 5.44 80 0 80 C-0.7296286 76.35185702 -1.1259835 73.63948902 -1.12939453 70.02392578 C-1.13254669 69.05746124 -1.13569885 68.0909967 -1.13894653 67.09524536 C-1.1369223 66.05576752 -1.13489807 65.01628967 -1.1328125 63.9453125 C-1.13376923 62.85274139 -1.13472595 61.76017029 -1.13571167 60.63449097 C-1.13639229 58.31280459 -1.1345462 55.99111631 -1.13037109 53.66943359 C-1.12511388 50.20014877 -1.1302712 46.73099904 -1.13671875 43.26171875 C-1.14059156 28.81534607 -0.75836537 14.42621696 0 0 Z " fill="#FEFEFE" transform="translate(144,130)"/>
<path d="M0 0 C1.10279297 0.00193359 2.20558594 0.00386719 3.34179688 0.00585938 C4.48583984 0.01810547 5.62988281 0.03035156 6.80859375 0.04296875 C7.92556641 0.04361328 9.04253906 0.04425781 10.19335938 0.04492188 C35.656297 0.17777198 35.656297 0.17777198 43.890625 7.68359375 C49.57107829 14.16618598 49.82877768 21.44275707 49.5546875 29.7734375 C48.80267752 38.19785313 44.50259989 42.78425322 38.24609375 48.23046875 C37.25609375 48.72546875 37.25609375 48.72546875 36.24609375 49.23046875 C36.7756674 53.5380075 37.7399522 56.58954325 39.96875 60.3046875 C40.77602539 61.67657227 40.77602539 61.67657227 41.59960938 63.07617188 C42.44555664 64.48286133 42.44555664 64.48286133 43.30859375 65.91796875 C44.43029336 67.79340975 45.54645998 69.67217453 46.65625 71.5546875 C47.15261963 72.38057373 47.64898926 73.20645996 48.16040039 74.05737305 C49.24609375 76.23046875 49.24609375 76.23046875 49.24609375 79.23046875 C43.63609375 79.23046875 38.02609375 79.23046875 32.24609375 79.23046875 C31.07046875 77.18859375 29.89484375 75.14671875 28.68359375 73.04296875 C28.28615967 72.36443848 27.88872559 71.6859082 27.47924805 70.98681641 C25.66489867 67.86365066 23.9950855 64.76591395 22.578125 61.44140625 C22.05605469 60.27867187 21.53398437 59.1159375 20.99609375 57.91796875 C20.5578125 56.84933594 20.11953125 55.78070313 19.66796875 54.6796875 C16.40705658 50.8510837 16.40705658 50.8510837 5.24609375 51.23046875 C5.24609375 60.47046875 5.24609375 69.71046875 5.24609375 79.23046875 C-6.75390625 79.23046875 -6.75390625 79.23046875 -9.75390625 78.23046875 C-10.5744638 68.5597407 -10.89058066 59.00689978 -10.8515625 49.30078125 C-10.84969053 47.9307358 -10.84827032 46.56068967 -10.84727478 45.19064331 C-10.84351083 41.63651584 -10.83373523 38.0824312 -10.8225708 34.52832031 C-10.81222268 30.88086526 -10.80774887 27.23340309 -10.80273438 23.5859375 C-10.79210549 16.46743071 -10.77510566 9.34895257 -10.75390625 2.23046875 C-6.94861896 0.62019693 -4.14891923 -0.01727728 0 0 Z M5.24609375 15.23046875 C5.24609375 22.49046875 5.24609375 29.75046875 5.24609375 37.23046875 C17.94957231 37.76844556 17.94957231 37.76844556 30.24609375 35.23046875 C33.28092707 32.04759478 34.12645759 30.06792189 34.74609375 25.73046875 C34.15700668 21.60685929 32.8489798 19.44579857 30.24609375 16.23046875 C27.68886146 14.9518526 25.87872273 15.11710266 23.01953125 15.1328125 C21.47265625 15.13764648 21.47265625 15.13764648 19.89453125 15.14257812 C18.81429688 15.15095703 17.7340625 15.15933594 16.62109375 15.16796875 C15.533125 15.17248047 14.44515625 15.17699219 13.32421875 15.18164062 C10.63148713 15.19345085 7.93878366 15.2113867 5.24609375 15.23046875 Z " fill="#FEFEFE" transform="translate(290.75390625,130.76953125)"/>
<path d="M0 0 C1.86399499 1.80970387 2.23757716 3.02552654 2.609375 5.5625 C-4.06751934 12.51687567 -4.06751934 12.51687567 -9.015625 12.6875 C-12.390625 11.5625 -12.390625 11.5625 -15.078125 10.0625 C-21.38653525 7.2058614 -29.79504538 6.44733221 -36.5078125 8.51171875 C-41.74129463 11.43247952 -45.38237032 16.41995881 -47.890625 21.75 C-49.08069852 30.8243106 -50.01195652 38.95716911 -44.390625 46.5625 C-44.08125 47.325625 -43.771875 48.08875 -43.453125 48.875 C-41.9117023 51.32314193 -40.08450605 51.66453965 -37.390625 52.5625 C-36.4934375 53.0884375 -36.4934375 53.0884375 -35.578125 53.625 C-29.23923553 56.34166692 -22.74926706 55.90144597 -16.390625 53.5625 C-13.60396711 52.1424334 -12.55353415 51.04193244 -10.390625 48.5625 C-9.730625 45.5925 -9.070625 42.6225 -8.390625 39.5625 C-14.990625 39.5625 -21.590625 39.5625 -28.390625 39.5625 C-28.390625 34.9425 -28.390625 30.3225 -28.390625 25.5625 C-16.180625 25.5625 -3.970625 25.5625 8.609375 25.5625 C8.609375 51.54192387 8.609375 51.54192387 0.609375 60.5625 C-8.76004122 68.64714677 -19.06678987 72.32895783 -31.390625 71.5625 C-40.70934236 70.42010032 -49.80686378 66.29589216 -56.390625 59.5625 C-62.51888705 50.85946446 -65.95481362 42.85945832 -65.765625 32.1875 C-65.75402344 31.34896484 -65.74242188 30.51042969 -65.73046875 29.64648438 C-65.42590878 18.11799376 -62.22171036 10.229786 -54.390625 1.5625 C-38.52355266 -12.44235967 -17.21161053 -11.55816181 0 0 Z " fill="#FEFEFE" transform="translate(133.390625,139.4375)"/>
<path d="M0 0 C3.25 -0.3125 3.25 -0.3125 7 0 C10.65221707 3.37654763 12.55783877 7.80054945 14.6015625 12.2734375 C14.93950836 13.00283539 15.27745422 13.73223328 15.62564087 14.48373413 C19.99538064 24.02343528 24.01841048 33.71495758 28.03857422 43.40576172 C29.38832779 46.65710454 30.74653169 49.90483012 32.10546875 53.15234375 C32.97446005 55.2393745 33.84296758 57.32660676 34.7109375 59.4140625 C35.11299408 60.37454498 35.51505066 61.33502747 35.92929077 62.32461548 C37.93224799 67.16880801 39.69066112 71.92249038 41 77 C37.39006828 78.13480527 34.0157673 78.10015767 30.25 78.0625 C29.07953125 78.05347656 27.9090625 78.04445313 26.703125 78.03515625 C25.36507812 78.01775391 25.36507812 78.01775391 24 78 C23.47599609 76.71802734 23.47599609 76.71802734 22.94140625 75.41015625 C22.48636719 74.30542969 22.03132813 73.20070313 21.5625 72.0625 C21.11003906 70.96035156 20.65757813 69.85820312 20.19140625 68.72265625 C19.25575392 66.13431084 19.25575392 66.13431084 18 65 C13.71508535 64.71849058 9.41805904 64.76817168 5.125 64.75 C3.91457031 64.729375 2.70414063 64.70875 1.45703125 64.6875 C0.29816406 64.68234375 -0.86070313 64.6771875 -2.0546875 64.671875 C-3.12187012 64.6625293 -4.18905273 64.65318359 -5.28857422 64.64355469 C-8.01012972 64.77344769 -8.01012972 64.77344769 -9.79858398 66.36547852 C-11.37849361 68.51493898 -12.24844892 70.69415747 -13.1875 73.1875 C-13.53167969 74.08855469 -13.87585938 74.98960937 -14.23046875 75.91796875 C-14.61138672 76.94857422 -14.61138672 76.94857422 -15 78 C-17.45840605 78.02691685 -19.91651882 78.04679802 -22.375 78.0625 C-23.07367188 78.07087891 -23.77234375 78.07925781 -24.4921875 78.08789062 C-29.7734375 78.11328125 -29.7734375 78.11328125 -32 77 C-29.91301285 70.355203 -27.39853961 63.97385852 -24.6484375 57.578125 C-24.23010651 56.59745056 -23.81177551 55.61677612 -23.38076782 54.60638428 C-22.04882639 51.48616093 -20.71200221 48.36805766 -19.375 45.25 C-18.50097946 43.20456491 -17.6272791 41.15899298 -16.75390625 39.11328125 C-14.17404923 33.07347011 -11.58759586 27.03649883 -9 21 C-8.1148788 18.93425767 -7.22978744 16.86850255 -6.34472656 14.80273438 C-4.23041201 9.86823473 -2.11547804 4.93400095 0 0 Z M4 29 C0.28543295 35.76581855 -1.83856861 42.5893781 -4 50 C1.61 50 7.22 50 13 50 C10.96907005 42.62451755 8.31458488 35.89119228 5 29 C4.67 29 4.34 29 4 29 Z " fill="#FEFEFE" transform="translate(33,132)"/>
<path d="M0 0 C3.43511044 2.07581725 4.15049573 4.13925486 5.7199707 7.81542969 C6.00272354 8.46472443 6.28547638 9.11401917 6.57679749 9.7829895 C7.510011 11.93796837 8.41776522 14.10270878 9.32543945 16.26855469 C9.97201426 17.77711976 10.61998822 19.28508585 11.26928711 20.79248047 C13.00651528 24.83908259 14.72072027 28.89506674 16.43011475 32.95349121 C17.90735554 36.45287239 19.39794597 39.94650942 20.88804626 43.44042969 C22.72724618 47.75563915 24.55891231 52.07402489 26.38793945 56.39355469 C26.91636948 57.64114563 26.91636948 57.64114563 27.45547485 58.91394043 C28.45477678 61.27805182 29.44956501 63.6440039 30.44262695 66.01074219 C30.73984146 66.71345245 31.03705597 67.41616272 31.34327698 68.14016724 C32.63383001 71.22895365 33.85079363 74.22881276 34.51293945 77.51855469 C31.03630565 79.6619163 28.30064751 79.73133095 24.26293945 79.64355469 C23.1852832 79.62550781 22.10762695 79.60746094 20.99731445 79.58886719 C20.1774707 79.56566406 19.35762695 79.54246094 18.51293945 79.51855469 C17.64713658 77.58622647 16.79564004 75.64748275 15.95043945 73.70605469 C15.47477539 72.62710938 14.99911133 71.54816406 14.5090332 70.43652344 C13.51293945 67.51855469 13.51293945 67.51855469 14.51293945 64.51855469 C17.15575873 66.87821476 18.87184585 69.07464043 20.45043945 72.20605469 C22.14254898 75.68115656 22.14254898 75.68115656 25.07543945 76.45605469 C26.88746361 76.50251685 28.70031973 76.51855469 30.51293945 76.51855469 C30.07981445 75.53113281 29.64668945 74.54371094 29.20043945 73.52636719 C28.637749 72.23217914 28.0752594 70.93790376 27.51293945 69.64355469 C27.22676758 68.99257812 26.9405957 68.34160156 26.64575195 67.67089844 C24.51293945 62.74511719 24.51293945 62.74511719 24.51293945 60.51855469 C21.44838836 60.57870289 18.38861015 60.66577872 15.32543945 60.76855469 C14.02896484 60.78982422 14.02896484 60.78982422 12.70629883 60.81152344 C7.26975762 61.01982004 4.61121662 61.67449396 0.51293945 65.51855469 C-2.92928304 65.44830525 -4.79828111 65.04035729 -7.54956055 62.95605469 C-9.99570649 61.14117221 -11.51220694 61.27065022 -14.48706055 61.51855469 C-14.75260742 62.37707031 -15.0181543 63.23558594 -15.29174805 64.12011719 C-16.49729856 67.54766277 -17.9595044 70.66029267 -19.61206055 73.89355469 C-20.15088867 74.95316406 -20.6897168 76.01277344 -21.24487305 77.10449219 C-21.65479492 77.90113281 -22.0647168 78.69777344 -22.48706055 79.51855469 C-24.42448395 79.5455885 -26.36201534 79.56496594 -28.29956055 79.58105469 C-29.37850586 79.59265625 -30.45745117 79.60425781 -31.5690918 79.61621094 C-34.48706055 79.51855469 -34.48706055 79.51855469 -37.48706055 78.51855469 C-35.48504982 71.23451578 -32.88993092 64.37930415 -29.8815918 57.45605469 C-29.43869308 56.42528809 -28.99579437 55.39452148 -28.53947449 54.33251953 C-27.13126921 51.05897353 -25.71543611 47.78878924 -24.29956055 44.51855469 C-23.36874428 42.35599983 -22.43840199 40.1932409 -21.50854492 38.03027344 C-19.26819308 32.82441092 -17.01243117 27.62541941 -14.74981689 22.42919922 C-13.53469049 19.62834138 -12.33271795 16.82215775 -11.13305664 14.01464844 C-10.42203858 12.36994087 -9.71063812 10.72539854 -8.9987793 9.08105469 C-8.68399124 8.33549316 -8.36920319 7.58993164 -8.0448761 6.82177734 C-4.67081173 -0.90417598 -4.67081173 -0.90417598 0 0 Z M-2.48706055 4.51855469 C-12.9314317 25.5314898 -22.47138632 46.85545053 -31.48706055 68.51855469 C-32.07438965 69.88367188 -32.07438965 69.88367188 -32.67358398 71.27636719 C-33.65758686 73.59104451 -33.65758686 73.59104451 -33.48706055 76.51855469 C-30.51706055 76.51855469 -27.54706055 76.51855469 -24.48706055 76.51855469 C-19.82742403 67.56948175 -15.93924814 58.33563635 -12.03588867 49.03808594 C-8.79243082 41.3793403 -5.30414067 33.90858457 -1.48706055 26.51855469 C2.95173642 35.70858822 7.32304014 44.80195349 10.51293945 54.51855469 C8.15272978 52.36997029 6.79742477 50.40112104 5.4699707 47.50683594 C5.11870117 46.74951172 4.76743164 45.9921875 4.40551758 45.21191406 C4.0490918 44.42623047 3.69266602 43.64054687 3.32543945 42.83105469 C2.95741211 42.03376953 2.58938477 41.23648438 2.21020508 40.41503906 C1.30520975 38.452257 0.40828293 36.4857583 -0.48706055 34.51855469 C-1.47706055 34.51855469 -2.46706055 34.51855469 -3.48706055 34.51855469 C-4.85989097 37.59390927 -6.20695848 40.6798975 -7.54956055 43.76855469 C-7.93950195 44.64125 -8.32944336 45.51394531 -8.73120117 46.41308594 C-9.09536133 47.25742188 -9.45952148 48.10175781 -9.8347168 48.97167969 C-10.17510986 49.74672852 -10.51550293 50.52177734 -10.86621094 51.3203125 C-11.56886014 53.80818251 -11.33403468 55.1095971 -10.48706055 57.51855469 C-7.2372292 56.43070501 -7.2372292 56.43070501 -4.48706055 54.51855469 C2.23293945 55.23855469 2.23293945 55.23855469 3.51293945 56.51855469 C5.56896237 56.78327867 7.63389852 56.98009947 9.70043945 57.14355469 C11.39233398 57.28664063 11.39233398 57.28664063 13.1184082 57.43261719 C16.41809961 57.51615368 19.27684423 57.10518374 22.51293945 56.51855469 C18.9288383 46.74893639 14.8390644 37.26640445 10.51953125 27.80395508 C9.43963707 25.43233089 8.37369656 23.05472757 7.30786133 20.67675781 C6.61534274 19.15358881 5.92201315 17.6307882 5.2277832 16.10839844 C4.91413315 15.40424301 4.60048309 14.70008759 4.27732849 13.97459412 C2.50772402 10.14026051 0.72030525 7.2865189 -2.48706055 4.51855469 Z M-2.48706055 56.51855469 C-3.14706055 57.83855469 -3.80706055 59.15855469 -4.48706055 60.51855469 C-3.00206055 61.50855469 -3.00206055 61.50855469 -1.48706055 62.51855469 C-0.49706055 61.52855469 0.49293945 60.53855469 1.51293945 59.51855469 C0.5344375 58.49750918 -0.46686481 57.49794259 -1.48706055 56.51855469 C-1.81706055 56.51855469 -2.14706055 56.51855469 -2.48706055 56.51855469 Z " fill="#FEFEFE" transform="translate(243.487060546875,130.4814453125)"/>
</svg>
