<?xml version="1.0" standalone="no"?>
<!DOCTYPE svg PUBLIC "-//W3C//DTD SVG 20010904//EN"
 "http://www.w3.org/TR/2001/REC-SVG-20010904/DTD/svg10.dtd">
<svg version="1.0" xmlns="http://www.w3.org/2000/svg"
 width="256.000000pt" height="256.000000pt" viewBox="0 0 256.000000 256.000000"
 preserveAspectRatio="xMidYMid meet">

<g transform="translate(0.000000,256.000000) scale(0.100000,-0.100000)"
fill="#000000" stroke="none">
<path d="M718 1567 c-89 -26 -162 -94 -194 -184 -7 -21 -13 -70 -14 -109 -1
-156 107 -275 264 -291 79 -8 157 18 215 72 56 53 71 93 71 194 l0 71 -135 0
-135 0 0 -50 0 -50 75 0 75 0 0 -28 c0 -59 -57 -102 -137 -102 -62 0 -110 26
-147 78 -25 35 -30 51 -30 104 0 76 22 128 72 166 30 23 45 27 101 27 52 0 73
-5 98 -22 40 -29 51 -29 93 6 34 29 34 30 16 50 -56 61 -195 94 -288 68z"/>
<path d="M1080 1508 c0 -40 -1 -145 -1 -233 -1 -88 -1 -188 0 -222 l1 -63 60
0 60 0 0 105 0 106 98 -3 97 -3 3 -102 3 -103 60 0 59 0 -2 292 -3 293 -55 0
-55 0 -3 -107 -3 -108 -99 0 -99 0 -3 108 -3 107 -57 3 -58 3 0 -73z"/>
<path d="M1792 1567 c-14 -17 -242 -548 -242 -564 0 -9 17 -13 54 -13 l53 0
31 70 c26 59 35 70 55 70 13 0 32 -9 42 -20 10 -11 24 -20 31 -20 8 0 19 9 26
20 11 17 24 20 91 20 l77 0 25 -56 c14 -31 25 -60 25 -65 0 -5 -16 -9 -35 -9
-32 0 -37 4 -61 53 -32 62 -43 50 -15 -16 l20 -47 56 0 c38 0 55 4 55 13 0 12
-227 539 -243 565 -10 16 -32 15 -45 -1z m120 -208 c47 -107 87 -197 87 -201
1 -5 -31 -8 -70 -8 -49 0 -75 4 -85 15 -9 8 -22 15 -29 15 -7 0 -20 -7 -29
-15 -15 -15 -60 -21 -54 -7 2 4 19 47 38 95 19 48 39 86 43 84 5 -1 25 -39 44
-85 19 -45 39 -80 43 -77 4 3 -13 52 -38 110 -25 57 -48 102 -51 99 -3 -3 -42
-90 -86 -192 l-80 -187 -39 -3 c-33 -3 -38 -1 -34 15 17 60 232 543 242 540 6
-2 50 -91 98 -198z m-74 -222 c4 -20 -25 -34 -40 -19 -15 15 -1 44 19 40 10
-2 19 -11 21 -21z"/>
<path d="M2108 1563 c-8 -10 -7 -312 2 -565 0 -5 25 -8 55 -8 l55 0 0 105 0
105 44 0 45 0 57 -105 57 -105 64 0 64 0 -15 28 c-8 15 -35 63 -61 107 -30 51
-43 81 -35 83 22 8 81 65 96 93 7 15 14 53 14 84 0 74 -27 127 -82 159 -40 23
-55 25 -196 28 -114 2 -156 0 -164 -9z m309 -115 c34 -32 32 -99 -3 -127 -22
-17 -41 -21 -110 -21 l-84 0 0 85 0 85 87 0 c75 0 90 -3 110 -22z"/>
<path d="M247 1558 c-3 -7 -55 -132 -117 -278 -62 -146 -115 -271 -117 -277
-4 -10 11 -13 56 -13 l61 0 15 38 c28 69 23 67 135 67 56 0 105 -2 109 -5 4
-3 16 -26 26 -52 l18 -48 58 0 c33 0 59 4 59 8 0 5 -53 134 -118 288 -116 274
-118 279 -149 282 -18 2 -33 -2 -36 -10z m72 -279 c17 -44 31 -83 31 -85 0 -6
-126 -5 -132 2 -7 6 54 164 64 164 3 0 20 -36 37 -81z"/>
</g>
</svg>
